<svg width="17" height="20" viewBox="0 0 17 20" fill="none" xmlns="http://www.w3.org/2000/svg">
<path d="M8.37654 12.7872C6.90943 14.1585 5.47668 15.4977 4.05029 16.8381C3.03235 17.7952 2.01441 18.7622 0.974844 19.7008C0.800521 19.859 0.511681 19.8974 0.27501 19.9901C0.184668 19.7589 0.0205244 19.5289 0.0141623 19.2976C0.000589747 13.1396 -0.00322706 6.98157 0.00271092 0.823544C0.00271092 0.0717205 0.0676043 0.00989453 0.837421 0.00989453C5.88131 0.00989453 10.9239 0.00989242 15.9678 0C16.5633 0 16.8013 0.185485 16.8 0.78274C16.786 6.9655 16.7936 13.1396 16.7771 19.3187C16.7771 19.5462 16.5888 19.7725 16.4883 20C16.2529 19.9011 15.9653 19.8553 15.791 19.6946C13.5006 17.5776 11.2357 15.4445 8.96058 13.3152C8.77608 13.147 8.59158 12.9826 8.37654 12.7872ZM0.941761 18.4568C1.15171 18.2713 1.26368 18.1773 1.3693 18.0784C3.43062 16.1494 5.49153 14.2195 7.55201 12.2889C8.374 11.5172 8.37399 11.5098 9.21507 12.2963C11.2323 14.1824 13.2474 16.0694 15.2604 17.9572C15.4143 18.1007 15.5785 18.2342 15.7922 18.4209V0.948437H0.941761V18.4568Z" fill="#767676"/>
</svg>
