<svg width="20" height="18" viewBox="0 0 20 18" fill="none" xmlns="http://www.w3.org/2000/svg">
<path d="M10.0006 2.2533C10.384 1.90262 10.7458 1.53488 11.1443 1.21192C12.2054 0.352905 13.5583 -0.0745913 14.9276 0.0165057C16.2968 0.107603 17.5794 0.710441 18.514 1.70223C20.472 3.79138 20.5152 6.96348 18.5237 8.98335C15.8519 11.6875 13.1152 14.3373 10.4142 17.017C10.0902 17.3368 9.85481 17.2995 9.55566 17.0021C6.89137 14.3608 4.19252 11.7525 1.56387 9.08035C-0.461081 7.02531 -0.5086 3.95233 1.35759 1.83227C2.24504 0.822658 3.48528 0.180065 4.83125 0.0325064C6.17722 -0.115052 7.53011 0.243256 8.6204 1.03605C9.10747 1.38992 9.52758 1.8344 10.0006 2.2533ZM9.97685 16.3465C12.7373 13.6083 15.4847 10.9467 18.1468 8.21058C19.1361 7.19372 19.3726 5.84323 19.0886 4.47249C18.7289 2.73508 17.6565 1.53915 15.9383 1.01046C14.2017 0.477516 12.639 0.885755 11.3052 2.10834C10.9888 2.39826 10.6907 2.70843 10.3872 3.01115C10.1226 3.27549 9.86993 3.28721 9.60102 3.01115C9.28999 2.69138 8.97571 2.37161 8.64416 2.07103C7.42271 0.960367 5.98527 0.526548 4.36423 0.921995C0.844605 1.78857 -0.375762 5.9317 2.11789 8.53248C3.08123 9.53868 4.09748 10.4959 5.08674 11.4786C6.70885 13.0924 8.32773 14.7061 9.97685 16.3465Z" fill="#767676"/>
</svg>
