<svg width="20" height="18" viewBox="0 0 20 18" fill="none" xmlns="http://www.w3.org/2000/svg">
<path d="M0.243331 17.8947C0.150176 17.6747 0.0191096 17.4832 0.000695155 17.2819C-0.0112201 17.1443 0.132846 16.9903 0.217335 16.8484C3.30662 11.4122 6.39699 5.97648 9.48845 0.541083C9.90115 -0.184003 10.1297 -0.181801 10.55 0.556488C13.6422 5.99188 16.7343 11.4269 19.8265 16.8616C19.8822 16.9338 19.9251 17.0153 19.9533 17.1025C19.9771 17.2863 20.0453 17.5658 19.9533 17.6395C19.8711 17.695 19.7776 17.7308 19.6798 17.7441C19.582 17.7574 19.4826 17.748 19.3889 17.7165C18.2147 17.206 17.0557 16.6602 15.8912 16.1277C14.0498 15.2871 12.217 14.4377 10.3669 13.619C10.1293 13.5297 9.86742 13.5336 9.63251 13.63C6.70787 14.9504 3.78323 16.2905 0.858588 17.6263C0.702607 17.6967 0.536878 17.7649 0.243331 17.8947ZM1.40561 16.3719L1.47601 16.46C4.09844 15.2618 6.72412 14.0713 9.33463 12.8477C9.49278 12.774 9.6206 12.4483 9.62168 12.2393C9.63902 8.99785 9.6336 5.75642 9.6336 2.51389V2.11669L9.51986 2.09578L1.40561 16.3719ZM10.4926 2.07488C10.4614 2.15418 10.4378 2.23635 10.4222 2.32024C10.4222 5.69041 10.4135 9.06057 10.4341 12.4307C10.4341 12.5969 10.6453 12.8356 10.8143 12.9149C12.6276 13.7654 14.4517 14.5906 16.2747 15.4213C17.0329 15.769 17.8031 16.1112 18.7022 16.5216L10.4926 2.07488Z" fill="#767676"/>
</svg>
